g Button
v -0.187500 -0.250000 0.187500
v -0.187500 -0.125000 0.187500
v -0.187500 -0.250000 -0.187500
v -0.187500 -0.125000 -0.187500
v 0.187500 -0.250000 0.187500
v 0.187500 -0.125000 0.187500
v 0.187500 -0.250000 -0.187500
v 0.187500 -0.125000 -0.187500
vt 0.6250 0.3750
vt 0.2500 0.3750
vt 0.2500 0.2500
vt 0.6250 0.2500
vt 0.6250 0.3750
vt 0.2500 0.3750
vt 0.2500 0.2500
vt 0.6250 0.2500
vt 0.6250 0.3750
vt 0.2500 0.3750
vt 0.2500 0.2500
vt 0.6250 0.2500
vt 0.6250 0.3750
vt 0.2500 0.3750
vt 0.2500 0.2500
vt 0.6250 0.2500
vt 0.2500 0.7500
vt 0.6250 0.7500
vn -1.0000 0.0000 0.0000
vn 0.0000 0.0000 -1.0000
vn 1.0000 0.0000 0.0000
vn 0.0000 0.0000 1.0000
vn 0.0000 1.0000 0.0000
s off
f 2/1/1 4/2/1 3/3/1 1/4/1
f 4/5/2 8/6/2 7/7/2 3/8/2
f 8/9/3 6/10/3 5/11/3 7/12/3
f 6/13/4 2/14/4 1/15/4 5/16/4
f 6/17/5 8/6/5 4/5/5 2/18/5
g Base
v -0.500000 -0.500000 0.500000
v -0.500000 -0.250000 0.500000
v -0.500000 -0.500000 -0.500000
v -0.500000 -0.250000 -0.500000
v 0.500000 -0.500000 0.500000
v 0.500000 -0.250000 0.500000
v 0.500000 -0.500000 -0.500000
v 0.500000 -0.250000 -0.500000
vt 1.0000 0.2500
vt 0.0000 0.2500
vt 0.0000 0.0000
vt 1.0000 0.0000
vt 1.0000 0.2500
vt 0.0000 0.2500
vt 0.0000 0.0000
vt 1.0000 0.0000
vt 1.0000 0.2500
vt 0.0000 0.2500
vt 0.0000 0.0000
vt 1.0000 0.0000
vt 1.0000 0.2500
vt 0.0000 0.2500
vt 0.0000 0.0000
vt 1.0000 0.0000
vt 1.0000 1.0000
vt 0.0000 1.0000
vt 0.0000 1.0000
vt 0.0000 0.0000
vt 1.0000 0.0000
vt 1.0000 1.0000
vn -1.0000 0.0000 0.0000
vn 0.0000 0.0000 -1.0000
vn 1.0000 0.0000 0.0000
vn 0.0000 0.0000 1.0000
vn 0.0000 -1.0000 0.0000
vn 0.0000 1.0000 0.0000
s off
f 10/19/6 12/20/6 11/21/6 9/22/6
f 12/23/7 16/24/7 15/25/7 11/26/7
f 16/27/8 14/28/8 13/29/8 15/30/8
f 14/31/9 10/32/9 9/33/9 13/34/9
f 9/22/10 11/35/10 15/36/10 13/29/10
f 14/37/11 16/38/11 12/39/11 10/40/11
